<?xml version="1.0" standalone="no"?>
<!DOCTYPE svg PUBLIC "-//W3C//DTD SVG 20010904//EN"
 "http://www.w3.org/TR/2001/REC-SVG-20010904/DTD/svg10.dtd">
<svg version="1.0" xmlns="http://www.w3.org/2000/svg"
 width="300.000000pt" height="300.000000pt" viewBox="0 0 300.000000 300.000000"
 preserveAspectRatio="xMidYMid meet">
<metadata>
Created by potrace 1.10, written by Peter Selinger 2001-2011
</metadata>
<g transform="translate(0.000000,300.000000) scale(0.100000,-0.100000)"
fill="#ffffff" stroke="none">
<path d="M1320 2474 c-65 -11 -111 -27 -198 -70 -98 -49 -124 -67 -205 -147
-87 -86 -116 -126 -199 -276 l-17 -32 -118 3 -118 3 -5 87 c-4 65 -10 91 -24
107 -11 12 -23 21 -28 21 -9 0 -83 -40 -295 -161 -91 -52 -113 -68 -113 -86 0
-29 7 -29 50 0 19 13 100 61 180 106 80 46 152 89 161 97 8 8 19 14 22 14 4 0
7 -52 7 -115 l0 -115 160 0 c144 0 161 2 166 18 7 24 60 130 87 174 26 42 115
139 172 186 22 18 85 55 140 83 305 151 674 83 906 -170 70 -76 130 -169 157
-243 l17 -48 387 0 c381 0 388 0 388 20 0 19 -8 20 -372 22 l-373 3 -28 55
c-49 98 -95 166 -154 227 -130 133 -280 213 -448 239 -110 17 -194 16 -305 -2z"/>
<path d="M1315 2380 c-136 -36 -231 -85 -332 -174 -38 -34 -143 -168 -143
-184 0 -5 -11 -30 -25 -53 -14 -24 -25 -48 -25 -54 0 -6 81 -9 228 -7 l228 3
26 72 c26 71 74 192 127 317 l27 65 55 3 54 2 45 -107 c25 -59 48 -117 52
-130 3 -13 26 -68 50 -123 l43 -100 223 0 222 0 -7 27 c-14 58 -103 190 -170
254 -106 101 -214 159 -363 194 -88 20 -228 18 -315 -5z m48 -37 c5 -9 -37
-121 -105 -283 l-44 -105 -177 -3 c-138 -2 -177 0 -177 10 0 30 68 128 134
193 84 82 155 126 268 166 91 32 95 32 101 22z m361 -29 c85 -29 153 -72 230
-144 61 -57 160 -196 150 -211 -3 -5 -81 -9 -174 -9 -168 0 -170 0 -185 24
-23 35 -154 360 -148 369 5 9 34 2 127 -29z"/>
<path d="M1462 2176 c-6 -24 -32 -91 -57 -149 -25 -59 -45 -109 -45 -112 0 -3
9 -5 19 -5 13 0 24 13 35 40 16 40 16 40 69 40 54 0 54 0 65 -39 8 -24 20 -41
32 -44 25 -7 25 6 -1 63 -12 25 -31 74 -44 110 -25 71 -54 140 -58 140 -2 0
-8 -20 -15 -44z m30 -138 c-20 -20 -36 5 -21 33 l12 24 10 -23 c7 -16 7 -26
-1 -34z"/>
<path d="M0 1828 c0 -19 32 -41 189 -130 104 -60 201 -108 215 -108 35 0 49
31 56 125 l5 80 99 0 99 0 4 -125 c2 -69 5 -143 6 -165 l2 -40 -337 -3 c-330
-2 -338 -3 -338 -22 0 -20 8 -20 375 -20 l374 0 -13 38 c-34 97 -44 273 -20
360 l6 22 -151 0 -151 0 0 -115 0 -114 -52 31 c-174 104 -239 140 -285 162
-28 14 -54 30 -58 35 -11 19 -25 12 -25 -11z"/>
<path d="M762 1823 c-4 -10 -7 -76 -7 -148 1 -96 5 -146 19 -192 l19 -63 202
0 203 0 13 33 c7 17 25 60 41 95 15 34 28 67 28 72 0 5 20 55 45 111 25 56 45
103 45 105 0 2 -9 4 -19 4 -15 0 -27 -19 -51 -82 -17 -46 -48 -126 -70 -178
-21 -52 -41 -105 -45 -117 -6 -21 -13 -23 -71 -23 -35 0 -64 2 -64 5 0 3 9 24
21 47 12 23 29 64 39 92 19 55 77 200 91 228 5 10 9 20 9 23 0 3 -99 5 -220 5
-201 0 -221 -2 -228 -17z m375 -50 c-5 -30 -62 -173 -102 -260 l-25 -53 -82 0
c-46 0 -88 4 -95 8 -22 14 -35 67 -40 172 -3 65 -1 116 6 133 l11 27 166 0
166 0 -5 -27z"/>
<path d="M1453 1783 c-28 -79 -110 -281 -128 -316 -8 -16 -15 -33 -15 -38 0
-5 74 -9 171 -9 159 0 171 1 164 18 -4 9 -11 28 -15 42 -4 14 -26 68 -48 120
-22 52 -43 106 -47 120 -14 46 -47 120 -55 120 -4 0 -16 -26 -27 -57z m83
-176 c24 -59 44 -114 44 -122 0 -12 -19 -15 -100 -15 -55 0 -100 4 -100 8 0
35 89 244 102 240 5 -2 30 -52 54 -111z"/>
<path d="M1603 1813 c15 -27 46 -102 125 -300 l36 -93 202 0 202 0 17 49 c24
72 33 185 23 275 -4 43 -11 82 -14 87 -5 8 -444 14 -444 6 0 -4 39 -88 50
-109 6 -10 10 -24 10 -32 0 -7 16 -49 36 -92 20 -44 40 -90 44 -104 4 -14 11
-33 15 -43 7 -16 2 -18 -55 -15 l-64 3 -28 70 c-16 39 -36 90 -45 115 -8 25
-21 59 -29 75 -7 17 -22 53 -32 80 -14 37 -26 51 -42 53 -21 4 -22 3 -7 -25z
m557 -33 c15 -28 15 -194 0 -250 -6 -25 -19 -51 -28 -57 -17 -14 -159 -18
-178 -5 -15 9 -134 297 -134 323 0 5 74 9 165 9 155 0 165 -1 175 -20z"/>
<path d="M2252 1788 c14 -72 4 -273 -16 -325 l-15 -43 159 0 159 0 3 116 3
115 92 -55 c51 -31 96 -56 101 -56 5 0 20 -8 33 -18 13 -10 56 -36 94 -57 39
-20 85 -46 103 -57 l32 -20 0 24 c0 20 -16 33 -92 77 -51 28 -136 77 -188 107
-135 78 -156 87 -181 74 -28 -16 -39 -51 -39 -130 0 -53 -4 -69 -16 -74 -24
-9 -182 -7 -188 2 -3 5 -2 81 1 170 l6 162 349 0 c341 0 348 0 348 20 0 20 -7
20 -379 20 l-378 0 9 -52z"/>
<path d="M2900 1330 c-46 -27 -85 -50 -88 -50 -3 0 -38 -20 -78 -45 -39 -25
-76 -45 -80 -45 -5 0 -32 -16 -59 -36 l-50 -35 -3 120 -3 121 -173 0 c-173 0
-174 0 -180 -23 -11 -44 -86 -148 -163 -225 -149 -148 -311 -214 -533 -215
-156 -2 -252 21 -377 89 -93 50 -125 75 -211 166 -53 56 -71 82 -114 166 l-22
42 -383 0 -383 0 0 -25 0 -25 370 0 370 0 56 -85 c243 -370 731 -485 1103
-260 103 62 204 161 271 264 l53 81 139 0 138 0 0 -76 c0 -54 5 -84 17 -105
30 -51 24 -53 348 134 92 54 131 82 133 96 2 12 -1 21 -6 21 -5 0 -46 -22 -92
-50z"/>
<path d="M836 1328 c30 -60 115 -167 164 -208 26 -22 50 -40 53 -40 3 0 17 30
33 68 15 37 40 97 56 134 15 36 28 69 28 72 0 3 -79 6 -175 6 l-176 0 17 -32z
m264 -26 c0 -15 -50 -136 -60 -146 -6 -6 -19 -1 -36 15 -35 32 -104 118 -104
130 0 5 45 9 100 9 55 0 100 -4 100 -8z"/>
<path d="M1805 1330 c4 -17 13 -43 20 -58 30 -62 75 -171 75 -181 0 -22 21
-10 85 51 55 51 102 112 159 206 6 9 -31 12 -169 12 l-177 0 7 -30z m255 -29
c0 -23 -110 -150 -131 -151 -6 0 -69 137 -69 151 0 5 45 9 100 9 55 0 100 -4
100 -9z"/>
<path d="M1239 1212 c-26 -64 -50 -125 -53 -134 -4 -14 -16 -18 -52 -18 -66 0
-46 -19 64 -63 124 -49 193 -60 319 -55 116 5 182 23 302 81 l66 31 -48 4 -48
3 -35 76 c-18 41 -34 80 -34 85 0 5 -10 32 -21 59 l-21 49 -197 0 -196 0 -46
-118z m407 70 c9 -6 104 -229 104 -245 0 -2 -33 -15 -72 -28 -130 -43 -382
-30 -450 23 -15 12 -12 23 28 122 25 61 50 116 56 123 8 10 50 13 167 13 86 0
161 -4 167 -8z"/>
<path d="M437 590 c-33 -26 -85 -155 -71 -178 19 -30 41 -37 68 -23 19 11 32
11 53 3 35 -14 101 -13 131 1 18 9 29 7 53 -7 l30 -18 33 35 c31 33 33 34 42
14 21 -47 63 -47 88 -1 6 10 12 21 13 23 1 2 21 -13 43 -33 45 -40 76 -45 121
-19 24 15 32 15 54 3 21 -11 29 -11 50 0 22 12 30 12 53 -2 20 -12 32 -14 45
-6 10 5 31 7 47 3 19 -4 37 -1 50 8 18 13 25 12 58 -5 119 -61 218 102 116
191 -39 35 -73 39 -118 16 -22 -12 -37 -13 -55 -7 -30 11 -118 10 -143 -2 -9
-4 -28 -1 -46 8 -26 13 -31 13 -52 -1 -20 -14 -25 -14 -56 1 -43 20 -67 20
-103 2 -25 -13 -31 -13 -50 0 -16 12 -37 14 -84 10 -34 -3 -73 -5 -87 -5 -14
-1 -35 -6 -48 -13 -19 -10 -28 -9 -53 6 -31 18 -31 18 -60 -10 l-29 -28 -28
27 c-34 32 -33 32 -65 7z m53 -39 c0 -10 11 -44 25 -75 29 -67 29 -66 10 -66
-9 0 -20 11 -25 25 -7 18 -17 25 -35 25 -18 0 -28 -7 -35 -25 -5 -14 -17 -25
-26 -25 -9 0 -14 6 -11 13 48 120 62 147 79 147 11 0 18 -7 18 -19z m154 -36
c22 -30 41 -55 44 -55 2 0 1 25 -3 55 -6 50 -5 55 13 55 17 0 19 -7 18 -80 -1
-65 -4 -80 -16 -80 -9 0 -23 12 -33 28 -9 15 -29 41 -43 57 l-26 30 5 -57 c5
-52 4 -58 -14 -58 -17 0 -19 7 -17 80 1 99 15 104 72 25z m246 46 c0 -5 -12
-11 -27 -13 -26 -3 -27 -4 -24 -70 2 -60 0 -68 -16 -68 -16 0 -18 8 -15 70 l4
70 -31 0 c-17 0 -31 5 -31 10 0 6 30 10 70 10 39 0 70 -4 70 -9z m135 3 c23
-9 48 -62 41 -90 -23 -92 -146 -80 -146 14 0 67 44 99 105 76z m150 -50 l40
-55 3 55 c2 41 7 56 17 56 12 0 15 -17 15 -80 0 -88 -13 -103 -47 -54 -10 14
-30 40 -45 57 l-28 32 6 -57 c6 -50 4 -58 -10 -58 -13 0 -16 13 -16 80 0 98
10 101 65 24z m155 -24 c0 -64 -3 -80 -15 -80 -12 0 -15 16 -15 80 0 64 3 80
15 80 12 0 15 -16 15 -80z m165 63 c23 -22 36 -59 28 -80 -22 -62 -86 -81
-128 -38 -49 48 -17 135 50 135 18 0 41 -7 50 -17z"/>
<path d="M452 505 c-11 -23 -9 -25 12 -25 19 0 23 4 19 20 -8 31 -19 32 -31 5z"/>
<path d="M960 530 c-36 -36 -18 -90 29 -90 22 0 31 7 41 30 10 25 10 34 -4 55
-20 30 -39 32 -66 5z"/>
<path d="M1417 532 c-21 -23 -22 -65 -3 -82 38 -31 97 20 74 64 -21 40 -46 46
-71 18z"/>
<path d="M1676 599 c-22 -13 -76 -128 -76 -162 0 -13 9 -32 19 -41 17 -16 24
-16 55 -5 25 9 38 10 48 2 17 -14 119 -14 136 0 9 7 16 7 24 -1 15 -15 51 -15
65 -1 9 9 21 8 46 -5 43 -20 60 -20 97 -1 23 12 34 13 54 3 22 -9 29 -8 47 7
16 16 23 17 37 7 31 -22 44 -25 62 -14 13 8 23 7 39 -5 16 -11 35 -13 69 -9
26 3 65 7 87 9 22 2 45 5 50 7 6 2 23 0 38 -5 46 -13 63 12 65 96 1 66 -1 74
-28 100 -23 23 -37 29 -72 29 -24 0 -49 -5 -56 -12 -9 -9 -18 -9 -37 0 -35 16
-97 15 -120 -2 -14 -10 -23 -11 -37 -3 -14 9 -25 7 -48 -7 -30 -17 -32 -17
-50 -1 -17 15 -24 16 -49 5 -25 -10 -34 -9 -53 4 -31 22 -70 20 -101 -4 -14
-11 -28 -20 -32 -20 -4 0 -18 9 -32 20 -36 28 -94 26 -130 -4 l-28 -24 -28 24
c-32 27 -35 28 -61 13z m44 -43 c0 -8 13 -44 30 -80 27 -62 28 -66 10 -66 -13
0 -22 9 -26 25 -5 19 -13 25 -35 25 -22 0 -30 -6 -35 -25 -3 -14 -13 -25 -21
-25 -18 0 -15 21 19 102 15 39 29 58 41 58 9 0 17 -6 17 -14z m200 -5 c15 -29
12 -59 -7 -69 -15 -9 -14 -12 6 -41 21 -30 22 -31 3 -31 -12 0 -24 11 -32 30
-8 18 -20 30 -31 30 -14 0 -19 -7 -19 -30 0 -20 -5 -30 -15 -30 -12 0 -15 16
-15 80 l0 80 50 0 c38 0 52 -4 60 -19z m170 4 c19 -22 2 -40 -20 -20 -24 22
-58 11 -71 -22 -18 -48 30 -94 69 -67 30 21 49 8 26 -17 -26 -29 -78 -25 -103
7 -30 39 -24 102 13 126 19 13 73 9 86 -7z m88 -17 c-3 -31 -1 -33 35 -36 36
-3 37 -3 37 32 0 25 4 36 15 36 12 0 15 -16 15 -80 0 -64 -3 -80 -15 -80 -10
0 -15 11 -15 35 0 34 -1 35 -39 35 l-40 0 6 -35 c4 -28 2 -35 -11 -35 -13 0
-16 13 -16 80 0 66 3 80 16 80 11 0 14 -8 12 -32z m262 22 c0 -5 -18 -10 -40
-10 -36 0 -40 -2 -40 -25 0 -22 4 -25 35 -25 19 0 35 -4 35 -10 0 -5 -16 -10
-35 -10 -28 0 -35 -4 -35 -20 0 -17 7 -20 40 -20 29 0 40 -4 40 -15 0 -12 -13
-15 -55 -15 l-55 0 0 80 0 80 55 0 c30 0 55 -4 55 -10z m160 -9 c15 -29 12
-59 -6 -69 -16 -9 -16 -11 0 -33 20 -29 20 -39 1 -39 -8 0 -21 14 -30 30 -9
18 -23 30 -35 30 -16 0 -19 -5 -13 -30 4 -23 2 -30 -11 -30 -13 0 -16 13 -16
80 l0 80 50 0 c38 0 52 -4 60 -19z"/>
<path d="M1692 513 c-16 -29 -15 -33 8 -33 22 0 23 4 11 35 -8 19 -8 19 -19
-2z"/>
<path d="M1840 521 c0 -28 3 -31 31 -31 27 0 30 3 27 28 -2 21 -9 28 -30 30
-25 3 -28 0 -28 -27z"/>
<path d="M2517 543 c-4 -3 -7 -17 -7 -30 0 -21 4 -24 32 -21 52 5 49 57 -3 58
-9 0 -19 -3 -22 -7z"/>
</g>
</svg>