<svg version="1.1" viewBox="0.0 0.0 962.6981627296587 111.76115485564304" fill="none" stroke="none" stroke-linecap="square" stroke-miterlimit="10" xmlns:xlink="http://www.w3.org/1999/xlink" xmlns="http://www.w3.org/2000/svg"><clipPath id="p.0"><path d="m0 0l962.6982 0l0 111.761154l-962.6982 0l0 -111.761154z" clip-rule="nonzero"/></clipPath><g clip-path="url(#p.0)"><path fill="#000000" fill-opacity="0.0" d="m0 0l962.6982 0l0 111.761154l-962.6982 0z" fill-rule="evenodd"/><path fill="#f85c7f" d="m44.204075 32.284775l4.67432 25.484505c-9.464058 1.9366493 -16.523628 3.5872002 -21.178715 4.9516525l16.504395 -30.436157zm2.8276749 -24.098042c-2.2313614 0 -7.9059486 8.340783 -17.023762 25.02235c-6.69409 12.236084 -12.234026 23.063698 -16.619808 32.48284c-3.770235 1.0123367 -5.655352 3.3011017 -5.655352 6.866295c0 1.4964981 0.32701063 2.8169403 0.98103094 3.961319c-5.809239 13.95266 -8.713859 21.985336 -8.713859 24.098045c0 1.8926315 0.60273707 3.4771576 1.8081737 4.753586c1.2182856 1.2764206 2.596845 1.9146347 4.1357164 1.9146347c2.1159482 0 3.7894702 -1.2324066 5.0205674 -3.697235c4.6550846 -11.091698 7.9444227 -19.520515 9.8680105 -25.286438l15.350241 -3.6312103c6.347843 -1.5845261 11.483826 -2.6848984 15.407948 -3.3011017c1.5004005 9.903305 2.7507324 16.835617 3.7509995 20.796944c2.6160812 10.387466 5.693821 15.5812 9.233227 15.5812c1.5388718 0 2.9046173 -0.6382141 4.0972443 -1.9146423c1.192627 -1.2764282 1.7889404 -2.8609543 1.7889404 -4.753586c0 -1.1883926 -0.55784607 -3.5651855 -1.673523 -7.1303787l-3.2893372 -10.43148l-8.598446 -45.885315l-3.635582 -22.183405c-1.1156807 -4.8416157 -3.1931572 -7.2624235 -6.2324295 -7.2624235z" fill-rule="evenodd"/><path fill="#f85c7f" d="m93.024765 33.671238c-1.6158142 0 -2.9751434 0.60887146 -4.0780106 1.8266106c-1.0900192 1.2030678 -1.6350479 2.7509155 -1.6350479 4.643547c0 1.4084702 0.06412506 3.4991684 0.1923523 6.2720947c0.14107513 2.7729263 0.21160126 4.8636246 0.21160126 6.2720947c0 4.533512 -0.28211975 10.820278 -0.84638214 18.86029c-0.5514145 8.025345 -0.8271408 14.304779 -0.8271408 18.838287c0 1.3204422 0.1218338 3.3011017 0.36547852 5.941986c0.2564926 2.6408844 0.38471985 4.621544 0.38471985 5.941986c0 1.9806595 0.51937103 3.5871964 1.5581055 4.819603c1.0387344 1.2324142 2.4044876 1.8486176 4.0972443 1.8486176c1.6542892 0 3.007225 -0.6162033 4.058769 -1.8486176c1.0643997 -1.2324066 1.5965805 -2.8389435 1.5965805 -4.819603c0 -1.3204422 -0.11540985 -3.3011017 -0.3462448 -5.941986c-0.23082733 -2.6408844 -0.3462448 -4.621544 -0.3462448 -5.941986c0 -2.0686874 0.11541748 -4.2033997 0.3462448 -6.4041367c0.26930237 -2.5968628 0.4424286 -4.753586 0.51937103 -6.470154c2.000534 -8.142723 4.7705 -14.876968 8.309906 -20.202747c3.924118 -5.8539543 8.040596 -8.78093 12.349442 -8.78093c3.077736 0 4.6166077 4.753586 4.6166077 14.260761c0 1.2324066 -0.07051849 3.3231049 -0.21159363 6.2720947c-0.12822723 2.9489822 -0.19235992 5.0396805 -0.19235992 6.272087c0 4.489502 0.26930237 9.309113 0.8079071 14.458832l1.6158142 14.458824c0.4231949 4.1373825 2.2890778 6.20607 5.597641 6.20607c1.6542969 0 3.0264587 -0.60886383 4.1164856 -1.8266068c1.1028748 -1.203064 1.6542816 -2.7729263 1.6542816 -4.709572c0 -3.6092072 -0.4167633 -8.304108 -1.2503204 -14.084702c-0.8207245 -5.795273 -1.2311096 -10.519516 -1.2311096 -14.1727295l0.05770874 -6.140053l0 -6.6682243c-0.15388489 -8.098705 -1.0579681 -14.216743 -2.7122498 -18.354126c-2.4237213 -6.20607 -6.713333 -9.309109 -12.868813 -9.309109c-6.8095093 0 -13.445892 4.9296455 -19.90915 14.788937l-0.17312622 -7.724579c-0.3462448 -5.7219086 -2.2890701 -8.582863 -5.8284683 -8.582863z" fill-rule="evenodd"/><path fill="#f85c7f" d="m167.40994 13.534517c-1.6158142 0 -2.9815521 0.6088686 -4.0972443 1.8266096c-1.1156769 1.2030668 -1.673523 2.7289114 -1.673523 4.577527c0 1.6725597 0.08337402 4.3941364 0.2500763 8.164726c0.17955017 3.7559204 0.26930237 6.756254 0.26930237 9.001005l-12.118622 -1.1223755c-1.6158142 0 -2.9430847 0.6382103 -3.9818268 1.9146385c-1.0387268 1.2764244 -1.5581055 2.8829613 -1.5581055 4.819607c0 3.8292809 1.7119904 6.008007 5.1359863 6.5361824c5.7323 0.6162071 10.002655 0.99032974 12.811096 1.1223755l1.1541595 38.556866c0 1.6725616 -0.05770874 4.1813965 -0.17312622 7.526512c-0.11541748 3.3451157 -0.17312622 5.853958 -0.17312622 7.526512c0 1.7165756 0.56425476 3.147049 1.6927643 4.2914352c1.1413269 1.1443787 2.48143 1.7165756 4.020294 1.7165756c4.1934357 0 6.213196 -4.8196106 6.059311 -14.458832l-0.05770874 -3.3671188l-0.05770874 -2.904976l-1.0964508 -39.01902c4.3473206 -0.6602173 6.963394 -0.99032974 7.8482513 -0.99032974c0.8079071 0 1.7568665 0.044013977 2.8469086 0.13204575c1.1028595 0.088027954 2.0582428 0.13204193 2.86615 0.13204193c1.6542816 0 3.0072021 -0.623539 4.058777 -1.8706245c1.0643768 -1.2617531 1.5965729 -2.8609543 1.5965729 -4.7976c0 -3.2570877 -1.1733856 -5.325779 -3.520172 -6.20607c-1.2310944 -0.4401474 -3.847168 -0.6602211 -7.848236 -0.6602211c-0.6924896 0 -3.423996 0.35211563 -8.194489 1.0563507l0.05770874 -4.0933647l0.11541748 -3.829279c0 -2.288763 -0.05770874 -4.2474174 -0.17312622 -5.8759613c-0.57707214 -6.4701595 -2.5968475 -9.705238 -6.059311 -9.705238z" fill-rule="evenodd"/><path fill="#f85c7f" d="m229.44182 50.704456c0.03970337 0 0.07946777 1.5640259E-4 0.11929321 4.6539307E-4c8.579208 0.044013977 12.599503 8.582867 12.060898 25.61655c-0.1923523 6.294098 -1.923584 11.289764 -5.193695 14.9869995c-2.885376 3.3451157 -6.328598 5.0176773 -10.329666 5.0176773c-3.423996 0 -6.405548 -1.4744949 -8.944687 -4.423477c-3.0392761 -3.5651855 -4.558914 -8.538849 -4.558914 -14.920982c0 -6.382126 1.2503357 -12.06002 3.751007 -17.03368c3.1324615 -6.162369 7.497711 -9.243553 13.095764 -9.243553zm0.8694916 -13.402008c-9.61795 0 -17.11995 4.467491 -22.505997 13.402473c-4.6166077 7.570526 -6.8095093 16.329449 -6.5786743 26.276768c0.26930237 10.2554245 3.0007935 18.42015 8.194489 24.494179c4.6550903 5.4578247 10.214264 8.186729 16.67752 8.186729c8.117538 0 14.638504 -3.917305 19.562897 -11.751923c4.3473053 -6.910301 6.5786743 -15.251091 6.694092 -25.022346c0.11541748 -9.155056 -1.4042206 -16.989674 -4.558914 -23.503845c-3.9625854 -8.054691 -9.791061 -12.082035 -17.485413 -12.082035z" fill-rule="evenodd"/><path fill="#f85c7f" d="m272.72644 33.671238c-1.6158142 0 -2.9751587 0.60887146 -4.078003 1.8266106c-1.0900574 1.2030678 -1.6350403 2.7509155 -1.6350403 4.643547c0 1.4084702 0.064086914 3.4991684 0.1923523 6.2720947c0.14105225 2.7729263 0.21157837 4.8636246 0.21157837 6.2720947c0 4.533512 -0.282135 10.820278 -0.8463745 18.86029c-0.5514221 8.025345 -0.82714844 14.304779 -0.82714844 18.838287c0 1.3204422 0.12182617 3.3011017 0.36547852 5.941986c0.25650024 2.6408844 0.3847351 4.621544 0.3847351 5.941986c0 1.9806595 0.51937866 3.5871964 1.5581055 4.819603c1.0387268 1.2324142 2.40448 1.8486176 4.097229 1.8486176c1.6542969 0 3.0072021 -0.6162033 4.058777 -1.8486176c1.0643921 -1.2324066 1.5965881 -2.8389435 1.5965881 -4.819603c0 -1.3204422 -0.11541748 -3.3011017 -0.34625244 -5.941986c-0.23083496 -2.6408844 -0.34625244 -4.621544 -0.34625244 -5.941986c0 -2.0686874 0.11541748 -4.2033997 0.34625244 -6.4041367c0.26931763 -2.5968628 0.44244385 -4.753586 0.51937866 -6.470154c2.0005188 -8.142723 4.770508 -14.876968 8.309906 -20.202747c3.9241028 -5.8539543 8.040588 -8.78093 12.349426 -8.78093c3.0777588 0 4.6166077 4.753586 4.6166077 14.260761c0 1.2324066 -0.07052612 3.3231049 -0.21157837 6.2720947c-0.12823486 2.9489822 -0.1923523 5.0396805 -0.1923523 6.272087c0 4.489502 0.2692871 9.309113 0.80789185 14.458832l1.6158142 14.458824c0.42318726 4.1373825 2.289093 6.20607 5.5976562 6.20607c1.6542969 0 3.0264282 -0.60886383 4.1164856 -1.8266068c1.1028442 -1.203064 1.6542664 -2.7729263 1.6542664 -4.709572c0 -3.6092072 -0.41677856 -8.304108 -1.2503357 -14.084702c-0.8207092 -5.795273 -1.2310791 -10.519516 -1.2310791 -14.1727295l0.05770874 -6.140053l0 -6.6682243c-0.15390015 -8.098705 -1.0579834 -14.216743 -2.7122803 -18.354126c-2.423706 -6.20607 -6.713318 -9.309109 -12.868805 -9.309109c-6.8095093 0 -13.445892 4.9296455 -19.90915 14.788937l-0.1730957 -7.724579c-0.34625244 -5.7219086 -2.289093 -8.582863 -5.828491 -8.582863z" fill-rule="evenodd"/><path fill="#f85c7f" d="m339.4942 6.8662915c-1.8466187 0 -3.4432068 0.74825 -4.789734 2.2447495c-1.3464966 1.4964991 -2.0197449 3.3011017 -2.0197449 5.413807c0 2.1127043 0.6732483 3.9173079 2.0197449 5.413806c1.3465271 1.4965 2.9431152 2.244749 4.789734 2.244749c1.8466492 0 3.43042 -0.74824905 4.7512817 -2.244749c1.3336792 -1.4964981 2.0005188 -3.3011017 2.0005188 -5.413806c0 -2.1127052 -0.6668396 -3.9173079 -2.0005188 -5.413807c-1.3208618 -1.4964995 -2.9046326 -2.2447495 -4.7512817 -2.2447495zm-1.9043274 31.294445c-1.6542969 0 -3.0136414 0.6162071 -4.0780334 1.8486176c-1.0515442 1.2324104 -1.5773315 2.8389473 -1.5773315 4.819607c0 4.1373825 -0.1923523 9.301773 -0.5770874 15.493172c-0.3847046 6.1767235 -0.5770569 11.333782 -0.5770569 15.471165c0 2.6408844 0.06411743 6.594864 0.1923523 11.861961c0.14105225 5.252411 0.21157837 9.199066 0.21157837 11.839951c0 1.9366455 0.52578735 3.5211716 1.5773621 4.753586c1.0643921 1.2324066 2.423706 1.8486176 4.078003 1.8486176c1.692749 0 3.0585022 -0.61621094 4.0972595 -1.8486176c1.0387268 -1.2324142 1.5581055 -2.8169403 1.5581055 -4.753586c0 -2.6408844 -0.07052612 -6.5875397 -0.21160889 -11.839951c-0.12823486 -5.2670975 -0.1923523 -9.221077 -0.1923523 -11.861961c0 -4.1373825 0.1923523 -9.294441 0.5770874 -15.471165c0.3847046 -6.1913986 0.5770569 -11.355789 0.5770569 -15.493172c0 -1.9806595 -0.53219604 -3.5871964 -1.5965881 -4.819607c-1.0515442 -1.2324104 -2.40448 -1.8486176 -4.0587463 -1.8486176z" fill-rule="evenodd"/><path fill="#f85c7f" d="m386.5798 50.704456c0.03970337 0 0.07946777 1.5640259E-4 0.11929321 4.6539307E-4c8.579193 0.044013977 12.599487 8.582867 12.060883 25.61655c-0.1923523 6.294098 -1.923584 11.289764 -5.1936646 14.9869995c-2.8854065 3.3451157 -6.3286133 5.0176773 -10.329681 5.0176773c-3.4239807 0 -6.405548 -1.4744949 -8.944702 -4.423477c-3.0392761 -3.5651855 -4.558899 -8.538849 -4.558899 -14.920982c0 -6.382126 1.2503357 -12.06002 3.751007 -17.03368c3.1324768 -6.162369 7.497711 -9.243553 13.095764 -9.243553zm0.8694763 -13.402008c-9.61795 0 -17.119934 4.467491 -22.505981 13.402473c-4.6166077 7.570526 -6.8095093 16.329449 -6.5786743 26.276768c0.2692871 10.2554245 3.0007935 18.42015 8.194489 24.494179c4.6550903 5.4578247 10.214264 8.186729 16.67752 8.186729c8.117554 0 14.638519 -3.917305 19.562897 -11.751923c4.3473206 -6.910301 6.5786743 -15.251091 6.694092 -25.022346c0.11541748 -9.155056 -1.4042358 -16.989674 -4.558899 -23.503845c-3.962616 -8.054691 -9.791077 -12.082035 -17.485443 -12.082035z" fill-rule="evenodd"/><path fill="#f85c7f" d="m473.83768 20.268764l0 0c14.196075 7.1743946 23.256195 12.236084 27.180298 15.18507c11.849335 8.846951 17.773956 19.476498 17.773956 31.888641c0 5.325775 -1.1092529 10.446152 -3.3278198 15.36113c-2.2056885 4.900299 -5.1744385 8.802933 -8.906189 11.707901c-4.001068 3.0810318 -10.38739 4.621544 -19.158966 4.621544c-5.1552124 0 -9.425568 -1.2984314 -12.811096 -3.8953018c-0.53860474 -0.44013977 -0.9425659 -0.72624207 -1.211853 -0.858284l0.9233093 -36.04803l-0.1730957 -18.948322l-0.2885437 -19.014347zm-4.385803 -17.23175c-1.6158142 0 -3.2316284 0.9903307 -4.8474426 2.9709916c-1.6158142 1.9806609 -2.423706 3.873293 -2.423706 5.6778946c0 5.149719 0.083343506 12.844955 0.25006104 23.085707c0.17953491 10.226082 0.2692871 17.913979 0.2692871 23.063698c0 4.62154 -0.1859436 11.546516 -0.5578308 20.774933c-0.35906982 9.2137375 -0.53860474 16.131386 -0.53860474 20.752922c0 1.8926315 0.5578308 3.4991684 1.673523 4.8196106c1.1156921 1.3204422 2.5006714 1.9806595 4.1549683 1.9806595l0.5770569 0c2.1929016 1.8926315 5.4630127 3.4331512 9.810303 4.621544c3.6163635 1.0123367 6.8287354 1.5185089 9.6371765 1.5185089c11.15683 0 19.716797 -2.332779 25.679932 -6.998337c5.347595 -4.1813965 9.56665 -9.727249 12.657227 -16.63755c3.1033936 -6.910309 4.6550903 -14.1287155 4.6550903 -21.655228c0 -12.500175 -4.520447 -23.966 -13.56134 -34.397484c-7.694336 -8.846951 -17.004517 -15.40514 -27.930511 -19.674564c-0.9233093 -0.35211754 -4.34729 -2.1787271 -10.271942 -5.4798293c-5.2321777 -2.9489841 -8.309906 -4.423476 -9.233246 -4.423476z" fill-rule="evenodd"/><path fill="#f85c7f" d="m623.41595 32.284775l4.6743164 25.484505c-9.46405 1.9366493 -16.52362 3.5872002 -21.17871 4.9516525l16.504395 -30.436157zm2.8276367 -24.098042c-2.2313232 0 -7.905945 8.340783 -17.023743 25.02235c-6.694092 12.236084 -12.234009 23.063698 -16.619812 32.48284c-3.7702026 1.0123367 -5.6553345 3.3011017 -5.6553345 6.866295c0 1.4964981 0.32702637 2.8169403 0.98101807 3.961319c-5.809204 13.95266 -8.713867 21.985336 -8.713867 24.098045c0 1.8926315 0.60272217 3.4771576 1.8081665 4.753586c1.2183228 1.2764206 2.5968628 1.9146347 4.135742 1.9146347c2.1159668 0 3.7894897 -1.2324066 5.020569 -3.697235c4.6550903 -11.091698 7.944397 -19.520515 9.867981 -25.286438l15.350281 -3.6312103c6.3478394 -1.5845261 11.483826 -2.6848984 15.407959 -3.3011017c1.5003662 9.903305 2.7507324 16.835617 3.7509766 20.796944c2.6160889 10.387466 5.6938477 15.5812 9.233215 15.5812c1.5388794 0 2.904602 -0.6382141 4.097229 -1.9146423c1.192627 -1.2764282 1.7889404 -2.8609543 1.7889404 -4.753586c0 -1.1883926 -0.5578003 -3.5651855 -1.673523 -7.1303787l-3.2893066 -10.43148l-8.59845 -45.885315l-3.635559 -22.183405c-1.1157227 -4.8416157 -3.1931763 -7.2624235 -6.232483 -7.2624235z" fill-rule="evenodd"/><path fill="#f85c7f" d="m701.78296 36.180077c-9.00238 0 -17.1969 4.0713577 -24.583496 12.214073c-0.03845215 -7.3064384 -1.94281 -10.959656 -5.7130127 -10.959656c-3.385559 0 -5.078308 2.2227402 -5.078308 6.6682243c0 1.4524841 -0.05126953 3.6312141 -0.15386963 6.5361824c-0.089782715 2.9049683 -0.13464355 5.0836983 -0.13464355 6.5361824l0 46.34747c0 4.4454803 1.692749 6.6682205 5.078247 6.6682205c3.8087158 0 5.7130737 -2.2227402 5.7130737 -6.6682205l-0.11541748 -36.180077c2.2698364 -5.7659264 5.1167603 -10.079365 8.5407715 -12.940319c3.6547852 -3.081028 8.521484 -5.0396805 14.600037 -5.8759613l0.1730957 5.5458527c0.11541748 2.2447472 0.1730957 3.785263 0.1730957 4.62154c0 4.357456 1.6542969 6.5361786 4.9628906 6.5361786c3.5778809 0 5.501465 -2.7509155 5.770752 -8.25275c0.038513184 -0.79226303 0.057739258 -2.332779 0.057739258 -4.621544c0 -5.413807 -0.7694702 -9.463158 -2.3083496 -12.148052c-1.5388184 -2.6848984 -3.866394 -4.0273438 -6.982605 -4.0273438z" fill-rule="evenodd"/><path fill="#f85c7f" d="m748.2376 35.585876c-7.232666 0 -13.734375 5.281765 -19.505188 15.845287c-5.1936646 9.507175 -7.7905273 18.728252 -7.7905273 27.663235c0 9.37513 2.7699585 16.923645 8.309937 22.645554c5.27063 5.4578247 11.849304 8.186737 19.736023 8.186737c3.4239502 0 7.732788 -1.3204422 12.926514 -3.9613266c5.9246216 -2.9929962 8.886963 -6.096031 8.886963 -9.309105c0 -1.672554 -0.51934814 -3.1543884 -1.5581055 -4.4454803c-1.0387573 -1.3057709 -2.2698364 -1.9586563 -3.6932983 -1.9586563c-0.5001221 0 -1.3272705 0.35211945 -2.4814453 1.0563507l-6.694092 4.0933685c-2.6160278 1.4084702 -5.078247 2.112709 -7.3865356 2.112709c-5.078308 0 -9.233276 -1.5625229 -12.464905 -4.6875687c-3.4624634 -3.3451157 -5.1936646 -7.9226456 -5.1936646 -13.732582c0 -5.369789 1.7504883 -11.729912 5.251404 -19.080368c3.847168 -8.0106735 7.732849 -12.01601 11.656921 -12.01601c5.1552124 0 8.867798 1.0343437 11.137573 3.103035c0.7694702 0.74824905 1.5645142 1.5111732 2.385254 2.288765c0.8335571 0.7629204 1.8082275 1.1443825 2.9238892 1.1443825c1.4234619 0 2.6160889 -0.6455498 3.5778809 -1.9366493c0.961792 -1.305767 1.442688 -2.7949333 1.442688 -4.467491c0 -3.741249 -2.9431152 -6.910305 -8.829285 -9.507172c-4.6550903 -2.0246773 -8.867737 -3.037014 -12.6380005 -3.037014z" fill-rule="evenodd"/><path fill="#f85c7f" d="m790.53735 0c-1.6158447 0 -2.9815674 0.60886896 -4.097229 1.8266096c-1.1157227 1.2030673 -1.673523 2.728911 -1.673523 4.577528c0 2.1567192 0.1795044 4.240081 0.5385742 6.250086c0.3718872 1.9953318 0.5578613 4.1153727 0.5578613 6.3601217c0 1.8926334 -0.13464355 5.5678596 -0.40393066 11.025681l-0.17315674 48.5262l-0.1730957 9.771263c-0.11541748 5.325775 -0.32702637 8.538849 -0.63482666 9.639214c-0.34625244 1.3204422 -0.51934814 2.288765 -0.51934814 2.9049683c0 1.7605896 0.5963135 3.2570877 1.7889404 4.489502c1.192627 1.2324066 2.5776367 1.8486176 4.1549683 1.8486176c2.2698364 0 3.9433594 -1.3644562 5.020569 -4.0933685c1.2310791 -3.0810318 1.8466187 -13.00634 1.8466187 -29.77594c3.4240112 -7.3064346 6.1170044 -12.258091 8.079102 -14.854958c3.847168 -5.0616875 8.213684 -7.592533 13.099609 -7.592533c3.616333 0 5.4245605 4.1373825 5.4245605 12.412144c0 1.1443787 -0.051330566 2.882965 -0.15393066 5.2157364c-0.08972168 2.332779 -0.13464355 4.0713654 -0.13464355 5.215744c0 4.0933685 0.34625244 9.331116 1.0387573 15.713242c0.73095703 6.646225 1.5388794 11.773933 2.423706 15.383141c0.8463745 3.3451157 2.635315 5.0176697 5.3668213 5.0176697c1.6157837 0 3.0007935 -0.60886383 4.1549683 -1.8266068c1.1541138 -1.203064 1.7312012 -2.7069016 1.7312012 -4.511505c0 -0.52817535 -0.07696533 -1.1663895 -0.23083496 -1.9146423c-0.7694092 -3.917305 -1.4234619 -8.450821 -1.9620361 -13.60054l-1.1541748 -13.732582l-0.46166992 -12.610207c-0.23083496 -7.9226456 -1.192627 -13.556526 -2.885376 -16.901642c-2.385254 -4.753586 -6.770996 -7.1303787 -13.157349 -7.1303787c-4.039551 0 -7.861023 1.2030678 -11.4646 3.6092033c-3.5906372 2.391468 -6.963379 6.008007 -10.118042 10.849621l-0.057739258 -5.8099365c-0.03845215 -4.8416176 0.057739258 -9.661228 0.28857422 -14.458828c0.2692871 -5.0176735 0.40393066 -9.837282 0.40393066 -14.458826c0 -3.4331446 -0.3078003 -7.2844305 -0.92333984 -11.553856c-0.5385742 -3.8732924 -2.385254 -5.809939 -5.539917 -5.809939z" fill-rule="evenodd"/><path fill="#f85c7f" d="m877.272 48.65824c5.963135 0 10.598999 1.7605858 13.907532 5.281761c-2.9622803 2.8609543 -7.925171 6.228077 -14.88855 10.101372l-17.716248 9.639214c1.5388794 -8.362785 3.866394 -14.620209 6.982605 -18.772263c3.116211 -4.1667213 7.021118 -6.250084 11.714661 -6.250084zm0 -11.883968c-8.810059 0 -15.850342 4.2254105 -21.120972 12.676231c-4.847473 7.746586 -7.271179 17.341785 -7.271179 28.78561c0 9.903305 2.9430542 17.605873 8.829285 23.107712c5.3860474 4.9736557 12.426331 7.4604874 21.120972 7.4604874c5.57843 0 11.31073 -1.4964981 17.1969 -4.489502c6.8864136 -3.5211716 10.329651 -7.724571 10.329651 -12.610207c0 -1.5405121 -0.5321655 -2.890297 -1.5965576 -4.049347c-1.0515747 -1.173729 -2.2506104 -1.7605896 -3.597107 -1.7605896c-1.5004272 0 -2.904602 1.1810532 -4.2126465 3.5431824c-1.3080444 2.3474426 -4.2319336 4.2474136 -8.771606 5.699898c-3.5778809 1.1443863 -6.694092 1.7165756 -9.348633 1.7165756c-4.2703857 0 -8.014954 -0.9243088 -11.233765 -2.7729263c-3.2059326 -1.8486176 -5.8861694 -4.599533 -8.040588 -8.252754l22.044312 -11.949989c6.232422 -3.3451157 10.310425 -5.8099365 12.23407 -7.3944626c4.34729 -3.6092072 6.520935 -7.614544 6.520935 -12.016014c0 -6.294098 -2.4814453 -10.959656 -7.444275 -13.99667c-4.039551 -2.4648247 -9.252441 -3.697235 -15.638794 -3.697235z" fill-rule="evenodd"/><path fill="#f85c7f" d="m952.29193 36.180077c-9.00238 0 -17.196838 4.0713577 -24.583435 12.214073c-0.038513184 -7.3064384 -1.94281 -10.959656 -5.7130737 -10.959656c-3.385498 0 -5.078247 2.2227402 -5.078247 6.6682243c0 1.4524841 -0.051330566 3.6312141 -0.15393066 6.5361824c-0.08972168 2.9049683 -0.13464355 5.0836983 -0.13464355 6.5361824l0 46.34747c0 4.4454803 1.692749 6.6682205 5.078308 6.6682205c3.8086548 0 5.7130127 -2.2227402 5.7130127 -6.6682205l-0.11541748 -36.180077c2.2698364 -5.7659264 5.1167603 -10.079365 8.5407715 -12.940319c3.6547852 -3.081028 8.521484 -5.0396805 14.600037 -5.8759613l0.1730957 5.5458527c0.11541748 2.2447472 0.17315674 3.785263 0.17315674 4.62154c0 4.357456 1.6542969 6.5361786 4.9628296 6.5361786c3.5778809 0 5.501465 -2.7509155 5.770752 -8.25275c0.038513184 -0.79226303 0.057739258 -2.332779 0.057739258 -4.621544c0 -5.413807 -0.7694092 -9.463158 -2.3082886 -12.148052c-1.5388794 -2.6848984 -3.866455 -4.0273438 -6.982666 -4.0273438z" fill-rule="evenodd"/><path stroke="#000000" stroke-width="1.0" stroke-linejoin="round" stroke-linecap="butt" d="m44.204075 32.284775l4.67432 25.484505c-9.464058 1.9366493 -16.523628 3.5872002 -21.178715 4.9516525l16.504395 -30.436157zm2.8276749 -24.098042c-2.2313614 0 -7.9059486 8.340783 -17.023762 25.02235c-6.69409 12.236084 -12.234026 23.063698 -16.619808 32.48284c-3.770235 1.0123367 -5.655352 3.3011017 -5.655352 6.866295c0 1.4964981 0.32701063 2.8169403 0.98103094 3.961319c-5.809239 13.95266 -8.713859 21.985336 -8.713859 24.098045c0 1.8926315 0.60273707 3.4771576 1.8081737 4.753586c1.2182856 1.2764206 2.596845 1.9146347 4.1357164 1.9146347c2.1159482 0 3.7894702 -1.2324066 5.0205674 -3.697235c4.6550846 -11.091698 7.9444227 -19.520515 9.8680105 -25.286438l15.350241 -3.6312103c6.347843 -1.5845261 11.483826 -2.6848984 15.407948 -3.3011017c1.5004005 9.903305 2.7507324 16.835617 3.7509995 20.796944c2.6160812 10.387466 5.693821 15.5812 9.233227 15.5812c1.5388718 0 2.9046173 -0.6382141 4.0972443 -1.9146423c1.192627 -1.2764282 1.7889404 -2.8609543 1.7889404 -4.753586c0 -1.1883926 -0.55784607 -3.5651855 -1.673523 -7.1303787l-3.2893372 -10.43148l-8.598446 -45.885315l-3.635582 -22.183405c-1.1156807 -4.8416157 -3.1931572 -7.2624235 -6.2324295 -7.2624235z" fill-rule="evenodd"/><path stroke="#000000" stroke-width="1.0" stroke-linejoin="round" stroke-linecap="butt" d="m93.024765 33.671238c-1.6158142 0 -2.9751434 0.60887146 -4.0780106 1.8266106c-1.0900192 1.2030678 -1.6350479 2.7509155 -1.6350479 4.643547c0 1.4084702 0.06412506 3.4991684 0.1923523 6.2720947c0.14107513 2.7729263 0.21160126 4.8636246 0.21160126 6.2720947c0 4.533512 -0.28211975 10.820278 -0.84638214 18.86029c-0.5514145 8.025345 -0.8271408 14.304779 -0.8271408 18.838287c0 1.3204422 0.1218338 3.3011017 0.36547852 5.941986c0.2564926 2.6408844 0.38471985 4.621544 0.38471985 5.941986c0 1.9806595 0.51937103 3.5871964 1.5581055 4.819603c1.0387344 1.2324142 2.4044876 1.8486176 4.0972443 1.8486176c1.6542892 0 3.007225 -0.6162033 4.058769 -1.8486176c1.0643997 -1.2324066 1.5965805 -2.8389435 1.5965805 -4.819603c0 -1.3204422 -0.11540985 -3.3011017 -0.3462448 -5.941986c-0.23082733 -2.6408844 -0.3462448 -4.621544 -0.3462448 -5.941986c0 -2.0686874 0.11541748 -4.2033997 0.3462448 -6.4041367c0.26930237 -2.5968628 0.4424286 -4.753586 0.51937103 -6.470154c2.000534 -8.142723 4.7705 -14.876968 8.309906 -20.202747c3.924118 -5.8539543 8.040596 -8.78093 12.349442 -8.78093c3.077736 0 4.6166077 4.753586 4.6166077 14.260761c0 1.2324066 -0.07051849 3.3231049 -0.21159363 6.2720947c-0.12822723 2.9489822 -0.19235992 5.0396805 -0.19235992 6.272087c0 4.489502 0.26930237 9.309113 0.8079071 14.458832l1.6158142 14.458824c0.4231949 4.1373825 2.2890778 6.20607 5.597641 6.20607c1.6542969 0 3.0264587 -0.60886383 4.1164856 -1.8266068c1.1028748 -1.203064 1.6542816 -2.7729263 1.6542816 -4.709572c0 -3.6092072 -0.4167633 -8.304108 -1.2503204 -14.084702c-0.8207245 -5.795273 -1.2311096 -10.519516 -1.2311096 -14.1727295l0.05770874 -6.140053l0 -6.6682243c-0.15388489 -8.098705 -1.0579681 -14.216743 -2.7122498 -18.354126c-2.4237213 -6.20607 -6.713333 -9.309109 -12.868813 -9.309109c-6.8095093 0 -13.445892 4.9296455 -19.90915 14.788937l-0.17312622 -7.724579c-0.3462448 -5.7219086 -2.2890701 -8.582863 -5.8284683 -8.582863z" fill-rule="evenodd"/><path stroke="#000000" stroke-width="1.0" stroke-linejoin="round" stroke-linecap="butt" d="m167.40994 13.534517c-1.6158142 0 -2.9815521 0.6088686 -4.0972443 1.8266096c-1.1156769 1.2030668 -1.673523 2.7289114 -1.673523 4.577527c0 1.6725597 0.08337402 4.3941364 0.2500763 8.164726c0.17955017 3.7559204 0.26930237 6.756254 0.26930237 9.001005l-12.118622 -1.1223755c-1.6158142 0 -2.9430847 0.6382103 -3.9818268 1.9146385c-1.0387268 1.2764244 -1.5581055 2.8829613 -1.5581055 4.819607c0 3.8292809 1.7119904 6.008007 5.1359863 6.5361824c5.7323 0.6162071 10.002655 0.99032974 12.811096 1.1223755l1.1541595 38.556866c0 1.6725616 -0.05770874 4.1813965 -0.17312622 7.526512c-0.11541748 3.3451157 -0.17312622 5.853958 -0.17312622 7.526512c0 1.7165756 0.56425476 3.147049 1.6927643 4.2914352c1.1413269 1.1443787 2.48143 1.7165756 4.020294 1.7165756c4.1934357 0 6.213196 -4.8196106 6.059311 -14.458832l-0.05770874 -3.3671188l-0.05770874 -2.904976l-1.0964508 -39.01902c4.3473206 -0.6602173 6.963394 -0.99032974 7.8482513 -0.99032974c0.8079071 0 1.7568665 0.044013977 2.8469086 0.13204575c1.1028595 0.088027954 2.0582428 0.13204193 2.86615 0.13204193c1.6542816 0 3.0072021 -0.623539 4.058777 -1.8706245c1.0643768 -1.2617531 1.5965729 -2.8609543 1.5965729 -4.7976c0 -3.2570877 -1.1733856 -5.325779 -3.520172 -6.20607c-1.2310944 -0.4401474 -3.847168 -0.6602211 -7.848236 -0.6602211c-0.6924896 0 -3.423996 0.35211563 -8.194489 1.0563507l0.05770874 -4.0933647l0.11541748 -3.829279c0 -2.288763 -0.05770874 -4.2474174 -0.17312622 -5.8759613c-0.57707214 -6.4701595 -2.5968475 -9.705238 -6.059311 -9.705238z" fill-rule="evenodd"/><path stroke="#000000" stroke-width="1.0" stroke-linejoin="round" stroke-linecap="butt" d="m229.44182 50.704456c0.03970337 0 0.07946777 1.5640259E-4 0.11929321 4.6539307E-4c8.579208 0.044013977 12.599503 8.582867 12.060898 25.61655c-0.1923523 6.294098 -1.923584 11.289764 -5.193695 14.9869995c-2.885376 3.3451157 -6.328598 5.0176773 -10.329666 5.0176773c-3.423996 0 -6.405548 -1.4744949 -8.944687 -4.423477c-3.0392761 -3.5651855 -4.558914 -8.538849 -4.558914 -14.920982c0 -6.382126 1.2503357 -12.06002 3.751007 -17.03368c3.1324615 -6.162369 7.497711 -9.243553 13.095764 -9.243553zm0.8694916 -13.402008c-9.61795 0 -17.11995 4.467491 -22.505997 13.402473c-4.6166077 7.570526 -6.8095093 16.329449 -6.5786743 26.276768c0.26930237 10.2554245 3.0007935 18.42015 8.194489 24.494179c4.6550903 5.4578247 10.214264 8.186729 16.67752 8.186729c8.117538 0 14.638504 -3.917305 19.562897 -11.751923c4.3473053 -6.910301 6.5786743 -15.251091 6.694092 -25.022346c0.11541748 -9.155056 -1.4042206 -16.989674 -4.558914 -23.503845c-3.9625854 -8.054691 -9.791061 -12.082035 -17.485413 -12.082035z" fill-rule="evenodd"/><path stroke="#000000" stroke-width="1.0" stroke-linejoin="round" stroke-linecap="butt" d="m272.72644 33.671238c-1.6158142 0 -2.9751587 0.60887146 -4.078003 1.8266106c-1.0900574 1.2030678 -1.6350403 2.7509155 -1.6350403 4.643547c0 1.4084702 0.064086914 3.4991684 0.1923523 6.2720947c0.14105225 2.7729263 0.21157837 4.8636246 0.21157837 6.2720947c0 4.533512 -0.282135 10.820278 -0.8463745 18.86029c-0.5514221 8.025345 -0.82714844 14.304779 -0.82714844 18.838287c0 1.3204422 0.12182617 3.3011017 0.36547852 5.941986c0.25650024 2.6408844 0.3847351 4.621544 0.3847351 5.941986c0 1.9806595 0.51937866 3.5871964 1.5581055 4.819603c1.0387268 1.2324142 2.40448 1.8486176 4.097229 1.8486176c1.6542969 0 3.0072021 -0.6162033 4.058777 -1.8486176c1.0643921 -1.2324066 1.5965881 -2.8389435 1.5965881 -4.819603c0 -1.3204422 -0.11541748 -3.3011017 -0.34625244 -5.941986c-0.23083496 -2.6408844 -0.34625244 -4.621544 -0.34625244 -5.941986c0 -2.0686874 0.11541748 -4.2033997 0.34625244 -6.4041367c0.26931763 -2.5968628 0.44244385 -4.753586 0.51937866 -6.470154c2.0005188 -8.142723 4.770508 -14.876968 8.309906 -20.202747c3.9241028 -5.8539543 8.040588 -8.78093 12.349426 -8.78093c3.0777588 0 4.6166077 4.753586 4.6166077 14.260761c0 1.2324066 -0.07052612 3.3231049 -0.21157837 6.2720947c-0.12823486 2.9489822 -0.1923523 5.0396805 -0.1923523 6.272087c0 4.489502 0.2692871 9.309113 0.80789185 14.458832l1.6158142 14.458824c0.42318726 4.1373825 2.289093 6.20607 5.5976562 6.20607c1.6542969 0 3.0264282 -0.60886383 4.1164856 -1.8266068c1.1028442 -1.203064 1.6542664 -2.7729263 1.6542664 -4.709572c0 -3.6092072 -0.41677856 -8.304108 -1.2503357 -14.084702c-0.8207092 -5.795273 -1.2310791 -10.519516 -1.2310791 -14.1727295l0.05770874 -6.140053l0 -6.6682243c-0.15390015 -8.098705 -1.0579834 -14.216743 -2.7122803 -18.354126c-2.423706 -6.20607 -6.713318 -9.309109 -12.868805 -9.309109c-6.8095093 0 -13.445892 4.9296455 -19.90915 14.788937l-0.1730957 -7.724579c-0.34625244 -5.7219086 -2.289093 -8.582863 -5.828491 -8.582863z" fill-rule="evenodd"/><path stroke="#000000" stroke-width="1.0" stroke-linejoin="round" stroke-linecap="butt" d="m339.4942 6.8662915c-1.8466187 0 -3.4432068 0.74825 -4.789734 2.2447495c-1.3464966 1.4964991 -2.0197449 3.3011017 -2.0197449 5.413807c0 2.1127043 0.6732483 3.9173079 2.0197449 5.413806c1.3465271 1.4965 2.9431152 2.244749 4.789734 2.244749c1.8466492 0 3.43042 -0.74824905 4.7512817 -2.244749c1.3336792 -1.4964981 2.0005188 -3.3011017 2.0005188 -5.413806c0 -2.1127052 -0.6668396 -3.9173079 -2.0005188 -5.413807c-1.3208618 -1.4964995 -2.9046326 -2.2447495 -4.7512817 -2.2447495zm-1.9043274 31.294445c-1.6542969 0 -3.0136414 0.6162071 -4.0780334 1.8486176c-1.0515442 1.2324104 -1.5773315 2.8389473 -1.5773315 4.819607c0 4.1373825 -0.1923523 9.301773 -0.5770874 15.493172c-0.3847046 6.1767235 -0.5770569 11.333782 -0.5770569 15.471165c0 2.6408844 0.06411743 6.594864 0.1923523 11.861961c0.14105225 5.252411 0.21157837 9.199066 0.21157837 11.839951c0 1.9366455 0.52578735 3.5211716 1.5773621 4.753586c1.0643921 1.2324066 2.423706 1.8486176 4.078003 1.8486176c1.692749 0 3.0585022 -0.61621094 4.0972595 -1.8486176c1.0387268 -1.2324142 1.5581055 -2.8169403 1.5581055 -4.753586c0 -2.6408844 -0.07052612 -6.5875397 -0.21160889 -11.839951c-0.12823486 -5.2670975 -0.1923523 -9.221077 -0.1923523 -11.861961c0 -4.1373825 0.1923523 -9.294441 0.5770874 -15.471165c0.3847046 -6.1913986 0.5770569 -11.355789 0.5770569 -15.493172c0 -1.9806595 -0.53219604 -3.5871964 -1.5965881 -4.819607c-1.0515442 -1.2324104 -2.40448 -1.8486176 -4.0587463 -1.8486176z" fill-rule="evenodd"/><path stroke="#000000" stroke-width="1.0" stroke-linejoin="round" stroke-linecap="butt" d="m386.5798 50.704456c0.03970337 0 0.07946777 1.5640259E-4 0.11929321 4.6539307E-4c8.579193 0.044013977 12.599487 8.582867 12.060883 25.61655c-0.1923523 6.294098 -1.923584 11.289764 -5.1936646 14.9869995c-2.8854065 3.3451157 -6.3286133 5.0176773 -10.329681 5.0176773c-3.4239807 0 -6.405548 -1.4744949 -8.944702 -4.423477c-3.0392761 -3.5651855 -4.558899 -8.538849 -4.558899 -14.920982c0 -6.382126 1.2503357 -12.06002 3.751007 -17.03368c3.1324768 -6.162369 7.497711 -9.243553 13.095764 -9.243553zm0.8694763 -13.402008c-9.61795 0 -17.119934 4.467491 -22.505981 13.402473c-4.6166077 7.570526 -6.8095093 16.329449 -6.5786743 26.276768c0.2692871 10.2554245 3.0007935 18.42015 8.194489 24.494179c4.6550903 5.4578247 10.214264 8.186729 16.67752 8.186729c8.117554 0 14.638519 -3.917305 19.562897 -11.751923c4.3473206 -6.910301 6.5786743 -15.251091 6.694092 -25.022346c0.11541748 -9.155056 -1.4042358 -16.989674 -4.558899 -23.503845c-3.962616 -8.054691 -9.791077 -12.082035 -17.485443 -12.082035z" fill-rule="evenodd"/><path stroke="#000000" stroke-width="1.0" stroke-linejoin="round" stroke-linecap="butt" d="m473.83768 20.268764l0 0c14.196075 7.1743946 23.256195 12.236084 27.180298 15.18507c11.849335 8.846951 17.773956 19.476498 17.773956 31.888641c0 5.325775 -1.1092529 10.446152 -3.3278198 15.36113c-2.2056885 4.900299 -5.1744385 8.802933 -8.906189 11.707901c-4.001068 3.0810318 -10.38739 4.621544 -19.158966 4.621544c-5.1552124 0 -9.425568 -1.2984314 -12.811096 -3.8953018c-0.53860474 -0.44013977 -0.9425659 -0.72624207 -1.211853 -0.858284l0.9233093 -36.04803l-0.1730957 -18.948322l-0.2885437 -19.014347zm-4.385803 -17.23175c-1.6158142 0 -3.2316284 0.9903307 -4.8474426 2.9709916c-1.6158142 1.9806609 -2.423706 3.873293 -2.423706 5.6778946c0 5.149719 0.083343506 12.844955 0.25006104 23.085707c0.17953491 10.226082 0.2692871 17.913979 0.2692871 23.063698c0 4.62154 -0.1859436 11.546516 -0.5578308 20.774933c-0.35906982 9.2137375 -0.53860474 16.131386 -0.53860474 20.752922c0 1.8926315 0.5578308 3.4991684 1.673523 4.8196106c1.1156921 1.3204422 2.5006714 1.9806595 4.1549683 1.9806595l0.5770569 0c2.1929016 1.8926315 5.4630127 3.4331512 9.810303 4.621544c3.6163635 1.0123367 6.8287354 1.5185089 9.6371765 1.5185089c11.15683 0 19.716797 -2.332779 25.679932 -6.998337c5.347595 -4.1813965 9.56665 -9.727249 12.657227 -16.63755c3.1033936 -6.910309 4.6550903 -14.1287155 4.6550903 -21.655228c0 -12.500175 -4.520447 -23.966 -13.56134 -34.397484c-7.694336 -8.846951 -17.004517 -15.40514 -27.930511 -19.674564c-0.9233093 -0.35211754 -4.34729 -2.1787271 -10.271942 -5.4798293c-5.2321777 -2.9489841 -8.309906 -4.423476 -9.233246 -4.423476z" fill-rule="evenodd"/><path stroke="#000000" stroke-width="1.0" stroke-linejoin="round" stroke-linecap="butt" d="m623.41595 32.284775l4.6743164 25.484505c-9.46405 1.9366493 -16.52362 3.5872002 -21.17871 4.9516525l16.504395 -30.436157zm2.8276367 -24.098042c-2.2313232 0 -7.905945 8.340783 -17.023743 25.02235c-6.694092 12.236084 -12.234009 23.063698 -16.619812 32.48284c-3.7702026 1.0123367 -5.6553345 3.3011017 -5.6553345 6.866295c0 1.4964981 0.32702637 2.8169403 0.98101807 3.961319c-5.809204 13.95266 -8.713867 21.985336 -8.713867 24.098045c0 1.8926315 0.60272217 3.4771576 1.8081665 4.753586c1.2183228 1.2764206 2.5968628 1.9146347 4.135742 1.9146347c2.1159668 0 3.7894897 -1.2324066 5.020569 -3.697235c4.6550903 -11.091698 7.944397 -19.520515 9.867981 -25.286438l15.350281 -3.6312103c6.3478394 -1.5845261 11.483826 -2.6848984 15.407959 -3.3011017c1.5003662 9.903305 2.7507324 16.835617 3.7509766 20.796944c2.6160889 10.387466 5.6938477 15.5812 9.233215 15.5812c1.5388794 0 2.904602 -0.6382141 4.097229 -1.9146423c1.192627 -1.2764282 1.7889404 -2.8609543 1.7889404 -4.753586c0 -1.1883926 -0.5578003 -3.5651855 -1.673523 -7.1303787l-3.2893066 -10.43148l-8.59845 -45.885315l-3.635559 -22.183405c-1.1157227 -4.8416157 -3.1931763 -7.2624235 -6.232483 -7.2624235z" fill-rule="evenodd"/><path stroke="#000000" stroke-width="1.0" stroke-linejoin="round" stroke-linecap="butt" d="m701.78296 36.180077c-9.00238 0 -17.1969 4.0713577 -24.583496 12.214073c-0.03845215 -7.3064384 -1.94281 -10.959656 -5.7130127 -10.959656c-3.385559 0 -5.078308 2.2227402 -5.078308 6.6682243c0 1.4524841 -0.05126953 3.6312141 -0.15386963 6.5361824c-0.089782715 2.9049683 -0.13464355 5.0836983 -0.13464355 6.5361824l0 46.34747c0 4.4454803 1.692749 6.6682205 5.078247 6.6682205c3.8087158 0 5.7130737 -2.2227402 5.7130737 -6.6682205l-0.11541748 -36.180077c2.2698364 -5.7659264 5.1167603 -10.079365 8.5407715 -12.940319c3.6547852 -3.081028 8.521484 -5.0396805 14.600037 -5.8759613l0.1730957 5.5458527c0.11541748 2.2447472 0.1730957 3.785263 0.1730957 4.62154c0 4.357456 1.6542969 6.5361786 4.9628906 6.5361786c3.5778809 0 5.501465 -2.7509155 5.770752 -8.25275c0.038513184 -0.79226303 0.057739258 -2.332779 0.057739258 -4.621544c0 -5.413807 -0.7694702 -9.463158 -2.3083496 -12.148052c-1.5388184 -2.6848984 -3.866394 -4.0273438 -6.982605 -4.0273438z" fill-rule="evenodd"/><path stroke="#000000" stroke-width="1.0" stroke-linejoin="round" stroke-linecap="butt" d="m748.2376 35.585876c-7.232666 0 -13.734375 5.281765 -19.505188 15.845287c-5.1936646 9.507175 -7.7905273 18.728252 -7.7905273 27.663235c0 9.37513 2.7699585 16.923645 8.309937 22.645554c5.27063 5.4578247 11.849304 8.186737 19.736023 8.186737c3.4239502 0 7.732788 -1.3204422 12.926514 -3.9613266c5.9246216 -2.9929962 8.886963 -6.096031 8.886963 -9.309105c0 -1.672554 -0.51934814 -3.1543884 -1.5581055 -4.4454803c-1.0387573 -1.3057709 -2.2698364 -1.9586563 -3.6932983 -1.9586563c-0.5001221 0 -1.3272705 0.35211945 -2.4814453 1.0563507l-6.694092 4.0933685c-2.6160278 1.4084702 -5.078247 2.112709 -7.3865356 2.112709c-5.078308 0 -9.233276 -1.5625229 -12.464905 -4.6875687c-3.4624634 -3.3451157 -5.1936646 -7.9226456 -5.1936646 -13.732582c0 -5.369789 1.7504883 -11.729912 5.251404 -19.080368c3.847168 -8.0106735 7.732849 -12.01601 11.656921 -12.01601c5.1552124 0 8.867798 1.0343437 11.137573 3.103035c0.7694702 0.74824905 1.5645142 1.5111732 2.385254 2.288765c0.8335571 0.7629204 1.8082275 1.1443825 2.9238892 1.1443825c1.4234619 0 2.6160889 -0.6455498 3.5778809 -1.9366493c0.961792 -1.305767 1.442688 -2.7949333 1.442688 -4.467491c0 -3.741249 -2.9431152 -6.910305 -8.829285 -9.507172c-4.6550903 -2.0246773 -8.867737 -3.037014 -12.6380005 -3.037014z" fill-rule="evenodd"/><path stroke="#000000" stroke-width="1.0" stroke-linejoin="round" stroke-linecap="butt" d="m790.53735 0c-1.6158447 0 -2.9815674 0.60886896 -4.097229 1.8266096c-1.1157227 1.2030673 -1.673523 2.728911 -1.673523 4.577528c0 2.1567192 0.1795044 4.240081 0.5385742 6.250086c0.3718872 1.9953318 0.5578613 4.1153727 0.5578613 6.3601217c0 1.8926334 -0.13464355 5.5678596 -0.40393066 11.025681l-0.17315674 48.5262l-0.1730957 9.771263c-0.11541748 5.325775 -0.32702637 8.538849 -0.63482666 9.639214c-0.34625244 1.3204422 -0.51934814 2.288765 -0.51934814 2.9049683c0 1.7605896 0.5963135 3.2570877 1.7889404 4.489502c1.192627 1.2324066 2.5776367 1.8486176 4.1549683 1.8486176c2.2698364 0 3.9433594 -1.3644562 5.020569 -4.0933685c1.2310791 -3.0810318 1.8466187 -13.00634 1.8466187 -29.77594c3.4240112 -7.3064346 6.1170044 -12.258091 8.079102 -14.854958c3.847168 -5.0616875 8.213684 -7.592533 13.099609 -7.592533c3.616333 0 5.4245605 4.1373825 5.4245605 12.412144c0 1.1443787 -0.051330566 2.882965 -0.15393066 5.2157364c-0.08972168 2.332779 -0.13464355 4.0713654 -0.13464355 5.215744c0 4.0933685 0.34625244 9.331116 1.0387573 15.713242c0.73095703 6.646225 1.5388794 11.773933 2.423706 15.383141c0.8463745 3.3451157 2.635315 5.0176697 5.3668213 5.0176697c1.6157837 0 3.0007935 -0.60886383 4.1549683 -1.8266068c1.1541138 -1.203064 1.7312012 -2.7069016 1.7312012 -4.511505c0 -0.52817535 -0.07696533 -1.1663895 -0.23083496 -1.9146423c-0.7694092 -3.917305 -1.4234619 -8.450821 -1.9620361 -13.60054l-1.1541748 -13.732582l-0.46166992 -12.610207c-0.23083496 -7.9226456 -1.192627 -13.556526 -2.885376 -16.901642c-2.385254 -4.753586 -6.770996 -7.1303787 -13.157349 -7.1303787c-4.039551 0 -7.861023 1.2030678 -11.4646 3.6092033c-3.5906372 2.391468 -6.963379 6.008007 -10.118042 10.849621l-0.057739258 -5.8099365c-0.03845215 -4.8416176 0.057739258 -9.661228 0.28857422 -14.458828c0.2692871 -5.0176735 0.40393066 -9.837282 0.40393066 -14.458826c0 -3.4331446 -0.3078003 -7.2844305 -0.92333984 -11.553856c-0.5385742 -3.8732924 -2.385254 -5.809939 -5.539917 -5.809939z" fill-rule="evenodd"/><path stroke="#000000" stroke-width="1.0" stroke-linejoin="round" stroke-linecap="butt" d="m877.272 48.65824c5.963135 0 10.598999 1.7605858 13.907532 5.281761c-2.9622803 2.8609543 -7.925171 6.228077 -14.88855 10.101372l-17.716248 9.639214c1.5388794 -8.362785 3.866394 -14.620209 6.982605 -18.772263c3.116211 -4.1667213 7.021118 -6.250084 11.714661 -6.250084zm0 -11.883968c-8.810059 0 -15.850342 4.2254105 -21.120972 12.676231c-4.847473 7.746586 -7.271179 17.341785 -7.271179 28.78561c0 9.903305 2.9430542 17.605873 8.829285 23.107712c5.3860474 4.9736557 12.426331 7.4604874 21.120972 7.4604874c5.57843 0 11.31073 -1.4964981 17.1969 -4.489502c6.8864136 -3.5211716 10.329651 -7.724571 10.329651 -12.610207c0 -1.5405121 -0.5321655 -2.890297 -1.5965576 -4.049347c-1.0515747 -1.173729 -2.2506104 -1.7605896 -3.597107 -1.7605896c-1.5004272 0 -2.904602 1.1810532 -4.2126465 3.5431824c-1.3080444 2.3474426 -4.2319336 4.2474136 -8.771606 5.699898c-3.5778809 1.1443863 -6.694092 1.7165756 -9.348633 1.7165756c-4.2703857 0 -8.014954 -0.9243088 -11.233765 -2.7729263c-3.2059326 -1.8486176 -5.8861694 -4.599533 -8.040588 -8.252754l22.044312 -11.949989c6.232422 -3.3451157 10.310425 -5.8099365 12.23407 -7.3944626c4.34729 -3.6092072 6.520935 -7.614544 6.520935 -12.016014c0 -6.294098 -2.4814453 -10.959656 -7.444275 -13.99667c-4.039551 -2.4648247 -9.252441 -3.697235 -15.638794 -3.697235z" fill-rule="evenodd"/><path stroke="#000000" stroke-width="1.0" stroke-linejoin="round" stroke-linecap="butt" d="m952.29193 36.180077c-9.00238 0 -17.196838 4.0713577 -24.583435 12.214073c-0.038513184 -7.3064384 -1.94281 -10.959656 -5.7130737 -10.959656c-3.385498 0 -5.078247 2.2227402 -5.078247 6.6682243c0 1.4524841 -0.051330566 3.6312141 -0.15393066 6.5361824c-0.08972168 2.9049683 -0.13464355 5.0836983 -0.13464355 6.5361824l0 46.34747c0 4.4454803 1.692749 6.6682205 5.078308 6.6682205c3.8086548 0 5.7130127 -2.2227402 5.7130127 -6.6682205l-0.11541748 -36.180077c2.2698364 -5.7659264 5.1167603 -10.079365 8.5407715 -12.940319c3.6547852 -3.081028 8.521484 -5.0396805 14.600037 -5.8759613l0.1730957 5.5458527c0.11541748 2.2447472 0.17315674 3.785263 0.17315674 4.62154c0 4.357456 1.6542969 6.5361786 4.9628296 6.5361786c3.5778809 0 5.501465 -2.7509155 5.770752 -8.25275c0.038513184 -0.79226303 0.057739258 -2.332779 0.057739258 -4.621544c0 -5.413807 -0.7694092 -9.463158 -2.3082886 -12.148052c-1.5388794 -2.6848984 -3.866455 -4.0273438 -6.982666 -4.0273438z" fill-rule="evenodd"/></g></svg>